<svg xmlns="http://www.w3.org/2000/svg" xmlns:xlink="http://www.w3.org/1999/xlink" width="502" height="556" version="1.1" viewBox="0 0 502 556"><title>20E26991-95E9-4D93-9FA4-D211E159646D</title><desc>Created with sketchtool.</desc><defs><rect id="path-1" width="523" height="556" x="0" y="0"/><filter id="filter-3" width="138.8%" height="130.4%" x="-10.8%" y="-11.1%" filterUnits="objectBoundingBox"><feOffset dx="36" dy="22" in="SourceAlpha" result="shadowOffsetOuter1"/><feGaussianBlur in="shadowOffsetOuter1" result="shadowBlurOuter1" stdDeviation="21"/><feColorMatrix in="shadowBlurOuter1" result="shadowMatrixOuter1" type="matrix" values="0 0 0 0 0 0 0 0 0 0 0 0 0 0 0 0 0 0 0.1 0"/><feMerge><feMergeNode in="shadowMatrixOuter1"/><feMergeNode in="SourceGraphic"/></feMerge></filter></defs><g id="Page-1" fill="none" fill-rule="evenodd" stroke="none" stroke-width="1"><g id="manual" transform="translate(-797.000000, -138.000000)"><g id="Group-8" transform="translate(780.000000, 138.000000)"><mask id="mask-2" fill="#fff"><use xlink:href="#path-1"/></mask><g mask="url(#mask-2)"><g transform="translate(23.000000, 0.000000)"><g id="Group-5-Copy" transform="translate(69.052239, 56.357827)"><rect id="Rectangle-14-Copy" width="417.948" height="532.642" x="0" y="0" fill="#8100F7" rx="9.1"/><rect id="Rectangle-3" width="330.724" height="1.818" x="43.612" y="65.444" fill="#A139FF" rx=".909"/><rect id="Rectangle-3-Copy" width="330.724" height="1.818" x="43.612" y="85.441" fill="#A139FF" rx=".909"/><rect id="Rectangle-3-Copy-2" width="330.724" height="1.818" x="43.612" y="105.438" fill="#A139FF" rx=".909"/><rect id="Rectangle-3-Copy-3" width="330.724" height="1.818" x="43.612" y="125.435" fill="#A139FF" rx=".909"/><rect id="Rectangle-3-Copy-4" width="330.724" height="1.818" x="43.612" y="145.431" fill="#A139FF" rx=".909"/><rect id="Rectangle-3-Copy-5" width="330.724" height="1.818" x="43.612" y="165.428" fill="#A139FF" rx=".909"/><rect id="Rectangle-3-Copy-6" width="330.724" height="1.818" x="43.612" y="185.425" fill="#A139FF" rx=".909"/><rect id="Rectangle-3-Copy-7" width="330.724" height="1.818" x="43.612" y="205.422" fill="#A139FF" rx=".909"/><rect id="Rectangle-3-Copy-8" width="330.724" height="1.818" x="43.612" y="225.419" fill="#A139FF" rx=".909"/><rect id="Rectangle-3-Copy-9" width="330.724" height="1.818" x="43.612" y="245.415" fill="#A139FF" rx=".909"/><rect id="Rectangle-3-Copy-10" width="330.724" height="1.818" x="43.612" y="265.412" fill="#A139FF" rx=".909"/><rect id="Rectangle-3-Copy-11" width="330.724" height="1.818" x="43.612" y="285.409" fill="#A139FF" rx=".909"/><rect id="Rectangle-3-Copy-12" width="330.724" height="1.818" x="43.612" y="305.406" fill="#A139FF" rx=".909"/><rect id="Rectangle-3-Copy-13" width="330.724" height="1.818" x="43.612" y="325.403" fill="#A139FF" rx=".909"/><rect id="Rectangle-3-Copy-14" width="330.724" height="1.818" x="43.612" y="345.399" fill="#A139FF" rx=".909"/><rect id="Rectangle-3-Copy-15" width="330.724" height="1.818" x="43.612" y="365.396" fill="#A139FF" rx=".909"/><rect id="Rectangle-3-Copy-16" width="330.724" height="1.818" x="43.612" y="385.393" fill="#A139FF" rx=".909"/><rect id="Rectangle-3-Copy-17" width="330.724" height="1.818" x="43.612" y="405.39" fill="#A139FF" rx=".909"/><rect id="Rectangle-3-Copy-18" width="330.724" height="1.818" x="43.612" y="425.387" fill="#A139FF" rx=".909"/><rect id="Rectangle-3-Copy-19" width="330.724" height="1.818" x="43.612" y="445.383" fill="#A139FF" rx=".909"/><rect id="Rectangle-3-Copy-20" width="330.724" height="1.818" x="43.612" y="465.38" fill="#A139FF" rx=".909"/><rect id="Rectangle-3-Copy-21" width="330.724" height="1.818" x="43.612" y="485.377" fill="#A139FF" rx=".909"/></g><g id="Group-5-Copy-2" transform="translate(32.708955, 0.000000)"><rect id="Rectangle-14-Copy" width="417.948" height="532.642" x="0" y="0" fill="#A139FF" rx="9.1"/><rect id="Rectangle-3" width="330.724" height="1.818" x="43.612" y="65.444" fill="#A139FF" rx=".909"/><rect id="Rectangle-3-Copy" width="330.724" height="1.818" x="43.612" y="85.441" fill="#A139FF" rx=".909"/><rect id="Rectangle-3-Copy-2" width="330.724" height="1.818" x="43.612" y="105.438" fill="#A139FF" rx=".909"/><rect id="Rectangle-3-Copy-3" width="330.724" height="1.818" x="43.612" y="125.435" fill="#A139FF" rx=".909"/><rect id="Rectangle-3-Copy-4" width="330.724" height="1.818" x="43.612" y="145.431" fill="#A139FF" rx=".909"/><rect id="Rectangle-3-Copy-5" width="330.724" height="1.818" x="43.612" y="165.428" fill="#A139FF" rx=".909"/><rect id="Rectangle-3-Copy-6" width="330.724" height="1.818" x="43.612" y="185.425" fill="#A139FF" rx=".909"/><rect id="Rectangle-3-Copy-7" width="330.724" height="1.818" x="43.612" y="205.422" fill="#A139FF" rx=".909"/><rect id="Rectangle-3-Copy-8" width="330.724" height="1.818" x="43.612" y="225.419" fill="#A139FF" rx=".909"/><rect id="Rectangle-3-Copy-9" width="330.724" height="1.818" x="43.612" y="245.415" fill="#A139FF" rx=".909"/><rect id="Rectangle-3-Copy-10" width="330.724" height="1.818" x="43.612" y="265.412" fill="#A139FF" rx=".909"/><rect id="Rectangle-3-Copy-11" width="330.724" height="1.818" x="43.612" y="285.409" fill="#A139FF" rx=".909"/><rect id="Rectangle-3-Copy-12" width="330.724" height="1.818" x="43.612" y="305.406" fill="#A139FF" rx=".909"/><rect id="Rectangle-3-Copy-13" width="330.724" height="1.818" x="43.612" y="325.403" fill="#A139FF" rx=".909"/><rect id="Rectangle-3-Copy-14" width="330.724" height="1.818" x="43.612" y="345.399" fill="#A139FF" rx=".909"/><rect id="Rectangle-3-Copy-15" width="330.724" height="1.818" x="43.612" y="365.396" fill="#A139FF" rx=".909"/><rect id="Rectangle-3-Copy-16" width="330.724" height="1.818" x="43.612" y="385.393" fill="#A139FF" rx=".909"/><rect id="Rectangle-3-Copy-17" width="330.724" height="1.818" x="43.612" y="405.39" fill="#A139FF" rx=".909"/><rect id="Rectangle-3-Copy-18" width="330.724" height="1.818" x="43.612" y="425.387" fill="#A139FF" rx=".909"/><rect id="Rectangle-3-Copy-19" width="330.724" height="1.818" x="43.612" y="445.383" fill="#A139FF" rx=".909"/><rect id="Rectangle-3-Copy-20" width="330.724" height="1.818" x="43.612" y="465.38" fill="#A139FF" rx=".909"/><rect id="Rectangle-3-Copy-21" width="330.724" height="1.818" x="43.612" y="485.377" fill="#A139FF" rx=".909"/></g><g id="Group-5" filter="url(#filter-3)" transform="translate(0.000000, 38.178914)"><rect id="Rectangle-14-Copy" width="417.948" height="532.642" x="0" y="0" fill="#8100F7" rx="9.1"/><rect id="Rectangle-3" width="330.724" height="1.818" x="43.612" y="65.444" fill="#A139FF" rx=".909"/><rect id="Rectangle-3-Copy" width="330.724" height="1.818" x="43.612" y="85.441" fill="#A139FF" rx=".909"/><rect id="Rectangle-3-Copy-2" width="330.724" height="1.818" x="43.612" y="105.438" fill="#A139FF" rx=".909"/><rect id="Rectangle-3-Copy-3" width="330.724" height="1.818" x="43.612" y="125.435" fill="#A139FF" rx=".909"/><rect id="Rectangle-3-Copy-4" width="330.724" height="1.818" x="43.612" y="145.431" fill="#A139FF" rx=".909"/><rect id="Rectangle-3-Copy-5" width="330.724" height="1.818" x="43.612" y="165.428" fill="#A139FF" rx=".909"/><rect id="Rectangle-3-Copy-6" width="330.724" height="1.818" x="43.612" y="185.425" fill="#A139FF" rx=".909"/><rect id="Rectangle-3-Copy-7" width="330.724" height="1.818" x="43.612" y="205.422" fill="#A139FF" rx=".909"/><rect id="Rectangle-3-Copy-8" width="330.724" height="1.818" x="43.612" y="225.419" fill="#A139FF" rx=".909"/><rect id="Rectangle-3-Copy-9" width="330.724" height="1.818" x="43.612" y="245.415" fill="#A139FF" rx=".909"/><rect id="Rectangle-3-Copy-10" width="330.724" height="1.818" x="43.612" y="265.412" fill="#A139FF" rx=".909"/><rect id="Rectangle-3-Copy-11" width="330.724" height="1.818" x="43.612" y="285.409" fill="#A139FF" rx=".909"/><rect id="Rectangle-3-Copy-12" width="330.724" height="1.818" x="43.612" y="305.406" fill="#A139FF" rx=".909"/><rect id="Rectangle-3-Copy-13" width="330.724" height="1.818" x="43.612" y="325.403" fill="#A139FF" rx=".909"/><rect id="Rectangle-3-Copy-14" width="330.724" height="1.818" x="43.612" y="345.399" fill="#A139FF" rx=".909"/><rect id="Rectangle-3-Copy-15" width="330.724" height="1.818" x="43.612" y="365.396" fill="#A139FF" rx=".909"/><rect id="Rectangle-3-Copy-16" width="330.724" height="1.818" x="43.612" y="385.393" fill="#A139FF" rx=".909"/><rect id="Rectangle-3-Copy-17" width="330.724" height="1.818" x="43.612" y="405.39" fill="#A139FF" rx=".909"/><rect id="Rectangle-3-Copy-18" width="330.724" height="1.818" x="43.612" y="425.387" fill="#A139FF" rx=".909"/><rect id="Rectangle-3-Copy-19" width="330.724" height="1.818" x="43.612" y="445.383" fill="#A139FF" rx=".909"/><rect id="Rectangle-3-Copy-20" width="330.724" height="1.818" x="43.612" y="465.38" fill="#A139FF" rx=".909"/><rect id="Rectangle-3-Copy-21" width="330.724" height="1.818" x="43.612" y="485.377" fill="#A139FF" rx=".909"/></g></g></g></g></g></g></svg>