<svg xmlns="http://www.w3.org/2000/svg" viewBox="0 0 26 34"><defs><style>.cls-1{fill:#7293de}</style></defs><title>graph</title><g id="Camada_2" data-name="Camada 2"><g id="Camada_2-2" data-name="Camada 2"><path d="M1,34a1,1,0,0,1-1-1V19a1,1,0,0,1,2,0V33A1,1,0,0,1,1,34Z" class="cls-1"/><path d="M7,34a1,1,0,0,1-1-1V12a1,1,0,0,1,2,0V33A1,1,0,0,1,7,34Z" class="cls-1"/><path d="M13,34a1,1,0,0,1-1-1V1a1,1,0,0,1,2,0V33A1,1,0,0,1,13,34Z" class="cls-1"/><path d="M19,34a1,1,0,0,1-1-1V20a1,1,0,0,1,2,0V33A1,1,0,0,1,19,34Z" class="cls-1"/><path d="M25,34a1,1,0,0,1-1-1V12a1,1,0,0,1,2,0V33A1,1,0,0,1,25,34Z" class="cls-1"/></g></g></svg>